<svg width="223" height="256" viewBox="0 0 223 256" fill="none" xmlns="http://www.w3.org/2000/svg">
<path fill-rule="evenodd" clip-rule="evenodd" d="M213.295 10.2561C212.11 9.31878 211.303 7.92407 211.14 6.33845C211.12 6.1438 211.11 5.94626 211.11 5.74634C211.11 2.57273 213.683 0 216.857 0C220.03 0 222.603 2.57273 222.603 5.74634C222.603 8.76865 220.27 11.246 217.306 11.4754C217.158 11.4868 217.008 11.4927 216.857 11.4927C215.511 11.4927 214.274 11.0304 213.295 10.2561Z" fill="#516B5A"/>
<path fill-rule="evenodd" clip-rule="evenodd" d="M217.662 12.3374C217.514 12.3489 217.364 12.3548 217.213 12.3548C215.867 12.3548 214.168 11.9972 213.189 11.2229C195.295 31.9727 167.569 61.6734 147.681 79.587L205.863 52.2919L217.662 12.3374Z" fill="#B55629"/>
<path d="M154.576 142.518L190.203 105.454L107.459 131.6C96.7301 145.898 86.9151 158.69 77.9744 170.1L154.576 142.518Z" fill="#B55629"/>
<path d="M132.74 95.8262C123.804 108.078 115.382 119.458 107.459 130.017L190.203 103.871L146.531 82.035C141.335 86.7151 132.74 95.8262 132.74 95.8262Z" fill="#B55629"/>
<path d="M77.3998 172.033L113.49 188.697L154.001 144.45L77.3998 172.033Z" fill="#B55629"/>
<path d="M48.5566 206.294L112.34 189.738L76.2505 172.965C65.7956 185.607 56.3775 196.805 48.5566 206.294Z" fill="#B55629"/>
<path d="M22.6981 220.085L0 256C5.35929 252.347 21.8206 235.196 47.9449 203.708C55.7659 194.282 64.6083 183.325 74.5265 170.667C83.4672 159.257 93.2822 146.464 104.011 132.166C111.934 121.607 120.356 110.227 129.292 97.9755C121.939 102.507 109.085 115.633 94.4338 132.166C85.4553 142.298 75.8029 153.71 66.3281 165.208C56.5746 177.044 47.0099 188.97 38.5645 199.686C32.6108 207.24 27.2133 214.192 22.6981 220.085Z" fill="#516B5A"/>
<path fill-rule="evenodd" clip-rule="evenodd" d="M212.327 10.6482C211.142 9.71086 210.478 7.63677 210.316 6.05115L132.165 41.6629L145.956 78.7268C165.844 60.8131 194.433 31.3981 212.327 10.6482Z" fill="#DD992B"/>
<path d="M95.0084 127.569L130.155 42.5986C127.569 44.5342 102.306 67.7207 77.5896 93.3782L66.9022 160.611C76.377 149.113 86.03 137.701 95.0084 127.569Z" fill="#DD992B"/>
<path d="M131.016 93.4537C131.016 93.4537 139.611 84.3427 144.807 79.6625L131.016 42.5986L96.158 127.644C110.809 111.111 123.663 97.9851 131.016 93.4537Z" fill="#DD992B"/>
<path d="M75.6759 94.603C66.7866 103.831 58.2654 112.768 51.5267 119.887L64.9884 161.835L75.6759 94.603Z" fill="#DD992B"/>
<path d="M50.2435 121.177L35.9146 199.686C44.36 188.97 54.0308 176.181 63.7844 164.345L50.2435 121.177Z" fill="#DD992B"/>
<path d="M147.681 80.9529L191.353 102.789L205.863 53.6578L147.681 80.9529Z" fill="#B55629"/>
</svg>
