<svg width="180" height="205" viewBox="0 0 180 205" fill="none" xmlns="http://www.w3.org/2000/svg">
<path d="M32.1492 158.674C27.3816 164.723 23.0594 170.29 19.4437 175.009L1.26758 203.769C5.55918 200.844 18.7415 187.109 39.6613 161.895M32.1492 158.674L43.6018 97.473M32.1492 158.674C38.912 150.093 46.5712 140.542 54.3816 131.064M43.6018 97.473C48.998 91.7725 55.8216 84.6156 62.9399 77.2262M43.6018 97.473L54.3816 131.064M39.6613 161.895L89.8473 148.78M39.6613 161.895C45.9241 154.346 53.0049 145.572 60.9472 135.436M89.8473 148.78L60.9472 135.436M89.8473 148.78L122.288 113.348M60.9472 135.436L122.288 113.348M60.9472 135.436C68.1067 126.299 75.9663 116.055 84.5578 104.605M150.818 83.6684L122.288 113.348M150.818 83.6684L84.5578 104.605M150.818 83.6684L115.846 66.1825M150.818 83.6684L162.437 44.3252M104.802 77.2262C97.6464 87.0371 90.9025 96.1501 84.5578 104.605M104.802 77.2262C104.802 77.2262 111.685 69.9303 115.846 66.1825M104.802 77.2262C100.268 81.5 88.6206 91.3659 76.8885 104.605M115.846 66.1825L104.802 36.5026M115.846 66.1825L162.437 44.3252M115.846 66.1825C132.744 50.9622 157.124 25.0216 171.201 8.39689M104.802 36.5026L76.8885 104.605M104.802 36.5026C102.271 38.8034 82.732 56.6803 62.9399 77.2262M104.802 36.5026L170.058 6.80157C170.321 7.41336 170.714 7.95653 171.201 8.39689M76.8885 104.605C69.6988 112.719 61.9688 121.857 54.3816 131.064M54.3816 131.064L62.9399 77.2262M162.437 44.3252L172.772 9.32877C172.185 9.12449 171.653 8.8048 171.201 8.39689" stroke="#1A1A1A" stroke-width="3"/>
<path d="M174.869 9.20308C177.41 9.20308 179.471 7.1429 179.471 4.60154C179.471 2.06018 177.41 0 174.869 0C172.328 0 170.268 2.06018 170.268 4.60154C170.268 5.24784 170.401 5.86301 170.641 6.4211C170.905 7.03288 171.298 7.57606 171.785 8.01642C172.236 8.42433 172.769 8.74401 173.355 8.94829C173.829 9.11337 174.339 9.20308 174.869 9.20308Z" fill="#1A1A1A"/>
</svg>
