<svg width="256" height="256" viewBox="0 0 256 256" fill="none" xmlns="http://www.w3.org/2000/svg">
<rect width="256" height="256" rx="22" fill="#FDFDFD"/>
<path d="M69.8816 184.674C65.114 190.723 60.7918 196.29 57.1761 201.009L39 229.769C43.2916 226.844 56.474 213.109 77.3937 187.895M69.8816 184.674L81.3342 123.473M69.8816 184.674C76.6445 176.093 84.3036 166.542 92.114 157.064M81.3342 123.473C86.7304 117.773 93.554 110.616 100.672 103.226M81.3342 123.473L92.114 157.064M77.3937 187.895L127.58 174.78M77.3937 187.895C83.6566 180.346 90.7373 171.572 98.6796 161.436M127.58 174.78L98.6796 161.436M127.58 174.78L160.021 139.348M98.6796 161.436L160.021 139.348M98.6796 161.436C105.839 152.299 113.699 142.055 122.29 130.605M188.55 109.668L160.021 139.348M188.55 109.668L122.29 130.605M188.55 109.668L153.578 92.1825M188.55 109.668L200.169 70.3252M142.535 103.226C135.379 113.037 128.635 122.15 122.29 130.605M142.535 103.226C142.535 103.226 149.418 95.9303 153.578 92.1825M142.535 103.226C138 107.5 126.353 117.366 114.621 130.605M153.578 92.1825L142.535 62.5026M153.578 92.1825L200.169 70.3252M153.578 92.1825C170.476 76.9622 194.857 51.0216 208.934 34.3969M142.535 62.5026L114.621 130.605M142.535 62.5026C140.004 64.8034 120.464 82.6803 100.672 103.226M142.535 62.5026L207.79 32.8016C208.054 33.4134 208.446 33.9565 208.934 34.3969M114.621 130.605C107.431 138.719 99.7012 147.857 92.114 157.064M92.114 157.064L100.672 103.226M200.169 70.3252L210.504 35.3288C209.918 35.1245 209.385 34.8048 208.934 34.3969" stroke="#1A1A1A" stroke-width="3"/>
<path d="M212.602 35.2031C215.143 35.2031 217.203 33.1429 217.203 30.6015C217.203 28.0602 215.143 26 212.602 26C210.06 26 208 28.0602 208 30.6015C208 31.2478 208.133 31.863 208.374 32.4211C208.637 33.0329 209.03 33.5761 209.517 34.0164C209.969 34.4243 210.501 34.744 211.088 34.9483C211.562 35.1134 212.071 35.2031 212.602 35.2031Z" fill="#1A1A1A"/>
</svg>
