<svg width="46" height="45" viewBox="0 0 46 45" fill="none" xmlns="http://www.w3.org/2000/svg">
<path d="M32.0049 15C32.0049 15 45.7953 22.8298 45.5049 31C45.4786 31.7385 45.3365 32.4837 45.1055 33.2256C43.9246 33.0765 42.7213 33 41.5 33C31.909 33 23.4242 37.7373 18.2588 45H0.00488281L14.0049 31H32.0049V15ZM41.5 38C41.8364 38 42.171 38.0085 42.5039 38.0225C39.5571 41.9718 35.5049 45 35.5049 45H24.7686C29.03 40.6791 34.9518 38 41.5 38Z" fill="black"/>
<path d="M32.0048 15H14.0048V31C14.0048 31 0.296092 24.0076 0.00475819 16C-0.0391884 14.7921 0.223495 13.5864 0.701047 12.4092C2.57341 12.7962 4.51285 13 6.49988 13C16.5239 13 25.3382 7.82419 30.4188 0H44.5048L32.0048 15ZM24.162 0C19.855 4.90382 13.5394 8 6.49988 8C5.52619 8 4.56652 7.93925 3.6239 7.82422C7.47191 3.31311 13.0048 0 13.0048 0H24.162Z" fill="black"/>
</svg>
